<?xml version="1.0" encoding="UTF-8" standalone="no"?>
<!-- Created with Inkscape (http://www.inkscape.org/) -->

<svg
   xmlns:dc="http://purl.org/dc/elements/1.1/"
   xmlns:cc="http://creativecommons.org/ns#"
   xmlns:rdf="http://www.w3.org/1999/02/22-rdf-syntax-ns#"
   xmlns:svg="http://www.w3.org/2000/svg"
   xmlns="http://www.w3.org/2000/svg"
   version="1.1"
   width="100"
   height="100"
   viewBox="0 0 100 100"
   id="Layer_1"
   xml:space="preserve"><metadata
   id="metadata9"><rdf:RDF><cc:Work
       rdf:about=""><dc:format>image/svg+xml</dc:format><dc:type
         rdf:resource="http://purl.org/dc/dcmitype/StillImage" /><dc:title></dc:title></cc:Work></rdf:RDF></metadata><defs
   id="defs7" />

<path
   d="m 96.564195,70.326712 c -0.96,-0.664 -0.946,-0.97 -0.527,-3.55 0.412336,-2.936667 -0.775487,-6.045242 -2.136,-7.916 -3.011,-4.056 -10.657,-13.575 -16.61,-14.385 -6.012541,-0.524112 -13.142112,-0.77569 -18.693,-0.366 -4.725083,0.229193 -9.122797,0.779002 -13.622999,0.472 -3.944,-0.409 -6.71,-2.492 -6.736,-2.512 -0.011,-0.008 -0.024,-0.012 -0.035,-0.02 0.439,-1.135 1.31,-3.858 1.495,-5.537 2.023,-0.529 6.185,-2.049 8.691999,-4.085 2.104554,-2.459749 5.896589,-5.004124 2.944,-7.436 -0.875,-0.38 -2.656,-0.626 -4.539,-0.626 -2.267999,0 -7.705999,0.373 -10.745999,3.71 -3.11813,-1.236293 -6.552421,-2.544036 -9.287,-2.576 -3.385657,0.150644 -6.857047,1.068025 -9.965,2.492 -2.462,-2.64 -8.0270007,-3.053 -11.2640007,-3.053 -1.880399,-0.07805 -3.561656,0.04977 -4.54799999,1.432 -0.445,1.435 0.78599999,3.651999 2.99299999,5.395 2.807,2.214 6.6969997,4.846 9.4200007,4.93 0.631881,1.942271 0.469259,3.971173 1.289,5.747 0.94,1.998 2.688,5.717 2.943,8.508 0.167,1.838 1.024,3.399 2.479,4.519 0.385,0.296 0.809,0.538 1.248,0.752 -0.003,0.771 -0.033,1.535 -0.065,2.27 -0.083,1.9 -0.156,3.547 0.324,4.694 0.09,0.369 0.499,1.992 1.158,3.993 -0.938,0.979 -1.601,2.415 -1.303,4.796 0.254,2.035 2.668,5.046 7.041,5.047 1.827898,0.165861 4.564606,0.353196 5.578,1.237 1.183,0.934 2.717,1.401 4.581,1.401 3.528139,-0.289083 7.196016,-0.778161 10.761999,-0.906 1.385,-0.05 2.3,-0.082 2.838,-0.209 1.320546,-0.483814 2.193781,-1.261319 3.294,-2.014 0.569388,1.249149 1.284654,2.445775 2.44,2.467 2.580774,-0.371969 5.180141,-1.493671 7.441,-1.996 7.954203,-0.571971 16.032896,-2.938782 23.516,-1.937 0.805,0.086 1.639,0.471 2.521,0.879 1.207,0.558 2.456,1.134 3.877,1.078 1.552,-0.062 3.422,-0.819 3.86,-2.334 0.405,-1.395 -0.489,-2.863 -2.657,-4.361 z"
   id="path3000"
   style="fill:#000000"
      class="lamb" /></svg>